<svg xmlns="http://www.w3.org/2000/svg" viewBox="0 0 100 100">
  <defs>
    <linearGradient id="flaskGrad" x1="0%" y1="0%" x2="100%" y2="100%">
      <stop offset="0%" style="stop-color:#00D4FF;stop-opacity:1" />
      <stop offset="100%" style="stop-color:#00FF94;stop-opacity:1" />
    </linearGradient>
  </defs>
  <!-- Flask shape -->
  <path d="M35 15 L35 35 C35 38 34 40 32 42 L15 72 C12 77 15 85 25 85 L75 85 C85 85 88 77 85 72 L68 42 C66 40 65 38 65 35 L65 15 L35 15 Z" 
        fill="none" 
        stroke="url(#flaskGrad)" 
        stroke-width="4"
        stroke-linecap="round"
        stroke-linejoin="round"/>
  <!-- Liquid inside -->
  <path d="M20 75 L25 65 L75 65 L80 75 C82 78 80 80 75 80 L25 80 C20 80 18 78 20 75 Z" 
        fill="url(#flaskGrad)"
        opacity="0.8"/>
  <!-- Bubbles -->
  <circle cx="35" cy="70" r="3" fill="white" opacity="0.6"/>
  <circle cx="50" cy="72" r="2" fill="white" opacity="0.5"/>
  <circle cx="60" cy="68" r="4" fill="white" opacity="0.4"/>
  <!-- Top opening -->
  <rect x="30" y="10" width="40" height="8" rx="2" fill="url(#flaskGrad)"/>
</svg>